<?xml version="1.0" encoding="utf-8"?>
<!-- Generator: Adobe Illustrator 27.0.1, SVG Export Plug-In . SVG Version: 6.00 Build 0)  -->
<svg version="1.1" id="Layer_1" xmlns="http://www.w3.org/2000/svg" xmlns:xlink="http://www.w3.org/1999/xlink" x="0px" y="0px"
	 viewBox="0 0 16 16" style="enable-background:new 0 0 16 16;" xml:space="preserve">
<style type="text/css">
	.st0{fill:#49B3EB;}
	.st1{fill:#A80000;}
	.st2{fill:#CC0909;}
	.st3{fill:#FF3939;}
	.st4{fill:#440101;}
	.st5{fill:#040303;}
	.st6{fill:#FFFFFF;}
	.st7{fill:#ABE1FA;}
</style>
<g>
	<path class="st0" d="M13.35,12.16c0.05,0.03,0.1,0.05,0.15,0.08c0.01,0.01,0.04,0.01,0.03,0.04c-0.01,0.02-0.03,0.01-0.04,0.01
		c-0.01,0-0.02,0-0.02,0c-0.41,0-0.82,0-1.24,0c-0.07,0-0.1-0.02-0.09-0.09c0.01-0.06-0.04-0.1-0.08-0.14
		c-0.07-0.07-0.15-0.13-0.22-0.2c-0.06-0.06-0.05-0.07,0.02-0.11c0.13-0.07,0.14-0.2,0.02-0.29c-0.12-0.09-0.25-0.14-0.39-0.18
		c-0.2-0.05-0.41-0.09-0.62-0.08c0.21,0.04,0.42,0.08,0.63,0.16c0.12,0.04,0.24,0.08,0.33,0.18c0.03,0.04,0.05,0.08-0.01,0.11
		c-0.06,0.03-0.14,0.04-0.14,0.13c0,0.1,0.05,0.17,0.12,0.23c0.04,0.03,0.07,0.07,0.11,0.12c-0.05,0-0.08,0-0.11,0
		c-0.3-0.01-0.6,0.02-0.89,0.06c-0.14,0.02-0.27,0.03-0.41,0.02c-0.26-0.01-0.52,0-0.78,0c-0.05,0-0.1,0-0.14-0.02
		c-0.01,0-0.03-0.01-0.04-0.01c-0.28,0.06-0.57,0.01-0.85,0.03c-0.14,0.01-0.28,0-0.42,0c-0.05,0-0.09-0.01-0.13-0.03
		c0.29-0.03,0.58-0.06,0.87-0.11c0.29-0.05,0.58-0.08,0.83-0.23c-0.11,0.02-0.21,0.05-0.32,0.07c-0.16,0.03-0.32,0.05-0.49,0.06
		C8.65,12,8.27,12,7.89,11.99c-0.14,0-0.28-0.04-0.41-0.06c-0.37-0.05-0.74-0.04-1.11,0.08c-0.34,0.11-0.69,0.2-1.04,0.25
		c-0.05,0.01-0.1,0.01-0.15,0.02c-0.16,0.02-0.29-0.01-0.37-0.18c-0.06-0.12-0.17-0.17-0.3-0.18c-0.16-0.02-0.34,0-0.48-0.12
		c-0.06-0.05-0.11-0.1-0.18-0.15c0.05,0.1,0.12,0.19,0.22,0.24c0.1,0.06,0.21,0.08,0.33,0.09c0.13,0.01,0.25,0.04,0.31,0.17
		c0.02,0.05,0.01,0.08-0.05,0.08c-0.1-0.01-0.21,0-0.31-0.01c-0.08,0-0.17,0.01-0.25,0.01c-0.18,0-0.36,0-0.54,0
		c-0.05,0-0.09-0.01-0.12-0.05C3.37,12.09,3.28,12.04,3.18,12c-0.2-0.08-0.24-0.17-0.17-0.37c0.01-0.04,0.03-0.09,0.04-0.13
		c-0.08,0.11-0.15,0.22-0.13,0.36c0.01,0.07,0.04,0.13,0.09,0.18c0.01,0.01,0.04,0.03,0.03,0.05C3.03,12.1,3,12.11,2.98,12.11
		c-0.02,0-0.05,0-0.07,0c-0.25,0.01-0.51-0.01-0.76,0.01c-0.09,0.01-0.17-0.04-0.26-0.06c-0.12-0.07-0.24-0.15-0.32-0.27
		c-0.09-0.21-0.06-0.4,0.08-0.57c0.02-0.02,0.03-0.03,0.05-0.05c0.11-0.08,0.24-0.12,0.38-0.15c0.07,0,0.14,0,0.21,0.01l0.37,0.09
		c0.06,0.03,0.12,0.04,0.19,0.03c0.13-0.02,0.26-0.05,0.38-0.12c0.15-0.06,0.26-0.16,0.38-0.26c0.02-0.01,0.03-0.02,0.03-0.04
		c0.02-0.15,0.02-0.29-0.01-0.44c-0.05-0.23-0.16-0.33-0.4-0.33C3.17,9.94,3.11,9.94,3.06,9.95c-0.07,0-0.13,0.01-0.2,0.01
		c-0.04,0-0.09,0-0.13-0.01C2.65,9.94,2.53,9.92,2.46,9.91C2.41,9.9,2.36,9.88,2.31,9.87C2.08,9.77,1.86,9.68,1.69,9.5
		c0,0-0.01-0.01-0.01-0.01C1.54,9.32,1.49,9.13,1.59,8.92C1.62,8.88,1.65,8.83,1.69,8.8c0.09-0.05,0.19-0.05,0.29-0.03
		c0.08,0.01,0.15,0.04,0.23,0.07c0.14,0.07,0.28,0.13,0.42,0.2c0.13,0.08,0.26,0.16,0.4,0.21c0.06,0.03,0.12,0.03,0.19,0.03
		c0.07,0.02,0.13,0.01,0.19-0.01C3.48,9.25,3.55,9.24,3.61,9.2c0.06-0.02,0.11-0.05,0.14-0.1C3.78,9.08,3.8,9.04,3.81,9
		c0.03-0.06,0.02-0.12-0.03-0.17c-0.1-0.11-0.23-0.19-0.37-0.25C3.29,8.51,3.16,8.46,3.03,8.41C2.91,8.34,2.78,8.29,2.65,8.24
		C2.6,8.21,2.54,8.18,2.48,8.16c-0.11-0.06-0.23-0.1-0.34-0.15C2.02,7.96,1.83,7.88,1.71,7.82C1.58,7.76,1.46,7.7,1.33,7.64
		c-0.1-0.06-0.2-0.13-0.29-0.19c-0.1-0.08-0.2-0.17-0.3-0.25C0.57,7.01,0.41,6.83,0.27,6.62C0.21,6.49,0.15,6.36,0.08,6.24
		C0.07,6.17,0.05,6.11,0.02,6.04c-0.03-0.19-0.04-0.39,0.04-0.57c0.07-0.13,0.17-0.22,0.29-0.29C0.47,5.12,0.6,5.1,0.73,5.1
		c0.04,0.01,0.1,0.02,0.14,0.03c0.01,0.01,0.02,0,0.04,0c0.07,0.03,0.14,0.06,0.21,0.09C1.16,5.25,1.2,5.27,1.24,5.3
		C1.27,5.33,1.3,5.34,1.33,5.35c0.05,0.04,0.09,0.08,0.14,0.12c0,0.01,0.01,0.01,0.01,0.02C1.54,5.55,1.6,5.6,1.66,5.66
		c0.01,0.01,0.02,0.02,0.03,0.03c0.05,0.05,0.1,0.11,0.15,0.16C1.85,5.88,1.86,5.89,1.88,5.9C1.92,5.96,1.95,6,2,6.05
		c0.02,0.04,0.04,0.07,0.08,0.1c0.06,0.1,0.12,0.2,0.2,0.28C2.53,6.8,2.84,7.11,3.21,7.37C3.4,7.51,3.59,7.65,3.8,7.77l0,0
		c0.07,0.06,0.15,0.1,0.23,0.14c0.03,0.02,0.06,0.04,0.09,0.06C4.13,7.99,4.16,8,4.18,8.01c0.05,0.04,0.1,0.06,0.16,0.08
		c0.07,0.04,0.15,0.06,0.23,0.05C4.7,8.12,4.75,8.07,4.73,7.96C4.72,7.94,4.72,7.92,4.71,7.9C4.56,7.67,4.37,7.48,4.19,7.27
		C4.05,7.12,3.91,6.97,3.76,6.81C3.72,6.75,3.67,6.69,3.61,6.64C3.61,6.63,3.6,6.62,3.6,6.62C3.44,6.43,3.28,6.24,3.13,6.04
		C3.1,5.99,3.06,5.93,3.02,5.89c0-0.01-0.01-0.01-0.01-0.02C2.93,5.74,2.85,5.61,2.78,5.49c-0.05-0.13-0.11-0.26-0.16-0.4
		C2.6,5.03,2.58,4.97,2.55,4.91c-0.03-0.13-0.07-0.26-0.1-0.39C2.44,4.46,2.43,4.4,2.42,4.34C2.42,4.27,2.41,4.2,2.4,4.13
		c0.01-0.06,0.01-0.12,0-0.18c0.01-0.07,0.01-0.14,0.02-0.21c0.02-0.05,0.03-0.11,0.03-0.17c0.01-0.03,0.02-0.07,0.03-0.1
		C2.5,3.45,2.5,3.42,2.51,3.38c0.04-0.07,0.07-0.14,0.11-0.21c0.02-0.01,0.03-0.03,0.03-0.05c0.04-0.05,0.09-0.1,0.13-0.14
		c0.02-0.02,0.05-0.03,0.06-0.06c0.13-0.07,0.25-0.15,0.39-0.19C3.29,2.72,3.39,2.71,3.44,2.7c0.05,0,0.11,0,0.16,0.01
		c0.06,0.01,0.11,0.03,0.17,0.04C3.81,2.77,3.86,2.79,3.9,2.81c0.03,0.02,0.05,0.04,0.08,0.06C4.01,2.91,4.05,2.96,4.08,3
		C4.1,3.04,4.12,3.07,4.14,3.11C4.16,3.16,4.17,3.2,4.18,3.25c0,0.04,0.01,0.08,0.01,0.12c0,0.07-0.01,0.14-0.01,0.21
		c-0.01,0.03-0.01,0.06-0.02,0.1C4.15,3.75,4.15,3.82,4.15,3.89C4.13,3.91,4.13,3.92,4.14,3.94C4.13,4.01,4.11,4.08,4.12,4.15
		c0,0.06-0.03,0.12-0.01,0.18C4.1,4.39,4.1,4.45,4.1,4.51c0,0.07,0,0.14,0,0.21c0,0.06,0,0.12,0,0.18c0.01,0.07,0.01,0.14,0.02,0.2
		c0.02,0.09,0.03,0.17,0.05,0.26c0,0.01,0.01,0.02,0.01,0.02c0,0.03,0,0.06,0.02,0.09C4.2,5.54,4.22,5.6,4.25,5.66
		c0.01,0.07,0.04,0.13,0.07,0.19c0,0.02,0,0.03,0.02,0.05C4.35,5.96,4.37,6.02,4.4,6.07c0.05,0.12,0.09,0.25,0.16,0.36
		c0.02,0.07,0.06,0.14,0.1,0.21c0.05,0.12,0.1,0.23,0.16,0.34c0.06,0.14,0.13,0.27,0.19,0.41c0.05,0.14,0.12,0.27,0.22,0.38
		c0.01,0.04,0.05,0.07,0.08,0.1C5.38,7.94,5.47,8,5.57,8.02c0.08,0.02,0.16,0.03,0.22-0.04c0.05-0.07,0.05-0.16-0.01-0.24
		C5.69,7.6,5.6,7.47,5.51,7.33c0-0.05-0.03-0.1-0.06-0.14C5.42,7.13,5.39,7.06,5.37,7C5.35,6.95,5.34,6.91,5.32,6.86
		C5.31,6.84,5.3,6.81,5.29,6.79C5.27,6.73,5.28,6.67,5.25,6.62C5.24,6.55,5.23,6.49,5.22,6.43c-0.01-0.06,0-0.13-0.02-0.19
		c0-0.06,0.01-0.13,0.01-0.19c0.01-0.06,0.03-0.12,0.05-0.18c0.03-0.03,0.06-0.06,0.09-0.09c0.06-0.02,0.11-0.05,0.17-0.07
		c0.02,0,0.05,0,0.06-0.01c0.06,0,0.11,0,0.17,0c0.06,0,0.11,0.01,0.15,0.05c0.04,0.04,0.07,0.07,0.11,0.11
		C6.02,5.88,6.04,5.9,6.05,5.92C6.07,5.96,6.08,6,6.1,6.05C6.11,6.1,6.12,6.15,6.13,6.21c0,0.07,0.01,0.15,0.01,0.22
		C6.12,6.5,6.12,6.56,6.12,6.63c-0.01,0.06-0.01,0.12,0,0.18C6.1,6.88,6.12,6.95,6.13,7.02c0.01,0.06,0,0.12,0.03,0.18
		c0,0.07,0.01,0.13,0.03,0.19C6.2,7.45,6.21,7.52,6.23,7.58c0,0.06,0.01,0.11,0.04,0.16c0,0.01,0.01,0.02,0.01,0.03
		C6.29,7.84,6.31,7.9,6.34,7.96C6.35,8.03,6.37,8.09,6.4,8.15C6.41,8.19,6.41,8.24,6.48,8.2c0.02,0,0.04-0.01,0.05-0.03
		c0.05-0.02,0.1-0.04,0.14-0.08c0.06-0.03,0.11-0.06,0.16-0.11c0.01-0.01,0.02-0.01,0.03-0.02c0.07-0.05,0.13-0.1,0.18-0.16
		c0.01,0,0.01,0,0.01-0.01c0.07-0.06,0.12-0.13,0.17-0.21C7.27,7.5,7.31,7.41,7.3,7.31C7.29,7.27,7.3,7.23,7.3,7.2
		c0.03-0.05,0.06-0.09,0.12-0.1c0.07,0,0.13,0.04,0.19,0.07c0.08,0.12,0.18,0.2,0.33,0.19c0.08-0.01,0.13-0.04,0.15-0.13
		c0.03-0.16-0.04-0.29-0.11-0.42C7.96,6.74,7.94,6.68,7.9,6.62c-0.05-0.13-0.09-0.27-0.14-0.4C7.75,6.18,7.75,6.16,7.74,6.13
		c0.01,0,0.01,0,0.02-0.01c0.01,0.02,0.01,0.06,0.04,0.07c0.02-0.02,0.01-0.04,0-0.05C7.77,5.99,7.78,5.85,7.82,5.71
		C7.87,5.53,7.92,5.48,8.1,5.47c0.02-0.01,0.02-0.02,0-0.03c-0.03,0-0.05,0-0.08,0l0,0C8.07,5.4,8.05,5.41,8.1,5.38
		c0.06,0.03,0.13,0.06,0.19,0.09c0.02,0.02,0.04,0.04,0.07,0.07C8.38,5.58,8.4,5.62,8.42,5.66C8.44,5.73,8.45,5.8,8.48,5.86
		C8.49,5.91,8.51,5.96,8.54,6c0.01,0.01,0.01,0.02,0.02,0.03c0.06,0.14,0.12,0.27,0.21,0.39C8.81,6.52,8.88,6.6,8.94,6.68
		c0.05,0.06,0.1,0.12,0.18,0.15c0.06,0.04,0.1,0.02,0.13-0.04C9.29,6.74,9.3,6.68,9.3,6.62c0.01-0.06,0.01-0.13,0-0.19
		c0-0.06,0-0.12-0.01-0.18c-0.01-0.07,0-0.14-0.02-0.21c0-0.06,0-0.12-0.02-0.17C9.24,5.74,9.22,5.61,9.2,5.46
		c0.02,0.05,0.03,0.08,0.05,0.11c0-0.11-0.02-0.21-0.02-0.31c0.01-0.13,0.05-0.24,0.11-0.34C9.4,4.83,9.48,4.78,9.59,4.79
		c0.04,0,0.08,0,0.13,0C9.65,4.73,9.59,4.73,9.38,4.77l0,0c0.01-0.03,0.06-0.03,0.07-0.06c0.02,0,0.04,0,0.06-0.01
		c0.07,0,0.12,0,0.19,0c0.1,0.05,0.18,0.12,0.24,0.2C9.97,4.96,10,5.03,10.03,5.09c0.03,0.13,0.05,0.27,0.07,0.4
		c0,0.06-0.01,0.16-0.01,0.22c-0.02,0.11-0.04,0.22-0.06,0.34C10,6.1,9.98,6.17,9.96,6.24C9.91,6.36,9.83,6.48,9.81,6.62
		C9.79,6.71,9.83,6.77,9.9,6.82c0.05,0.06,0.12,0.08,0.2,0.09c0.14,0.01,0.26-0.04,0.38-0.09c0.07-0.01,0.13-0.04,0.19-0.08
		c0.07-0.02,0.14-0.06,0.2-0.11c0.01,0,0.02,0,0.03-0.01c0.29-0.19,0.51-0.45,0.65-0.76c0.04-0.06,0.06-0.12,0.08-0.19
		c0.06-0.12,0.09-0.26,0.14-0.38c0,0,0-0.01,0-0.01c0.01-0.03,0.04-0.03,0.06-0.01c0,0,0.04-0.1,0.04-0.1
		c0.55-0.42,0.68,0.02,0.67,0.19c0.24-0.05,0.25,0.14,0.24,0.27c0.07,0.06-0.14,0.31-0.14,0.42c0,0.03,0.03,0.05,0.06,0.05
		c0.07,0,0.12,0.04,0.16,0.09c0.02,0.02-0.26,0.16-0.24,0.18c0.09,0.05,0.05-0.08,0,0c-0.01,0.01,0.01-0.01,0,0
		c-0.05,0.06,0.03-0.07,0,0c-0.13,0.18-0.07,0.61-0.22,0.78c-0.07,0.07-0.14,0.15-0.17,0.24c-0.02,0.03-0.03,0.08,0.01,0.1
		c0.04,0.03,0.09,0.04,0.15,0.01c0.05,0,0.09-0.01,0.14-0.04c0.16-0.08,0.3-0.19,0.44-0.3c0.12-0.07,0.24-0.15,0.38-0.19
		c0.06,0,0.12-0.03,0.19-0.01c0.13,0.04,0.2,0.13,0.25,0.24c0,0.06,0.01,0.13-0.01,0.19c-0.04,0.08-0.1,0.15-0.17,0.22
		c-0.08,0.08-0.18,0.13-0.26,0.2c-0.13,0.06-0.25,0.12-0.38,0.19c-0.11,0.04-0.22,0.08-0.33,0.12c-0.07,0.02-0.18,0.06-0.25,0.08
		c-0.15,0.03-0.29,0.07-0.4,0.18c0.13-0.04,0.27-0.04,0.41-0.05c0.13,0.03,0.26,0.06,0.32,0.2c0.02,0.09-0.01,0.17-0.06,0.25
		c0.01,0.01,0.01,0.01,0.01,0.02c0.04-0.02,0.09-0.04,0.13-0.06c0.06-0.02,0.12-0.04,0.18-0.06c0.04-0.01,0.09-0.02,0.13-0.04
		c0.12-0.03,0.32-0.09,0.44-0.12c0.06-0.01,0.13-0.02,0.19-0.03c0.06-0.01,0.13-0.01,0.19-0.02c0.19-0.02,0.38,0.01,0.57,0.01
		c0.06,0.02,0.13,0.03,0.19,0.04c0.13,0.04,0.25,0.07,0.38,0.11c0.06,0.03,0.12,0.08,0.2,0.08c0.06,0,0.13,0,0.19,0
		c0.04,0,0.07,0.01,0.11,0.01l0.02,0c0.03,0.01,0.07,0.02,0.1,0.03c0.11,0.04,0.22,0.07,0.29,0.17c0.01,0.03,0.04,0.07,0.01,0.1
		c-0.03,0.03-0.06,0-0.1-0.01c-0.01,0-0.02,0-0.03-0.01c-0.16-0.07-0.31-0.15-0.47-0.22c0,0.01-0.01,0.02-0.01,0.02
		c0.13,0.08,0.21,0.19,0.29,0.3c0.02,0.06,0.04,0.13,0.06,0.19c0.01,0.06,0,0.12-0.01,0.18c-0.06,0.12-0.16,0.18-0.27,0.23
		c-0.07,0.01-0.18,0.03-0.24,0.04c-0.01,0-0.02,0-0.03,0c-0.09,0-0.11,0-0.09,0.06c0,0.07,0,0.17,0,0.23
		c-0.03,0.13-0.1,0.23-0.2,0.31c-0.14,0.08-0.28,0.08-0.43,0.05c-0.05-0.01-0.09-0.04-0.14-0.04c-0.06-0.04-0.13-0.06-0.19-0.09
		c-0.12-0.07-0.25-0.13-0.38-0.18c-0.12-0.06-0.25-0.11-0.38-0.14c-0.06-0.03-0.13-0.04-0.19-0.05c-0.06-0.01-0.12-0.03-0.19-0.02
		c-0.06-0.02-0.13-0.01-0.19,0c-0.06,0-0.13,0.01-0.19,0.01c-0.07,0.01-0.13,0.01-0.19,0.03c-0.06,0.01-0.13,0.02-0.19,0.05
		c-0.13,0.03-0.26,0.07-0.38,0.14c-0.07,0.02-0.13,0.05-0.19,0.08c-0.06,0.02-0.13,0.04-0.18,0.08c0,0-0.01,0-0.01,0
		c-0.18,0.07-0.3,0.2-0.41,0.34c-0.07,0.08-0.13,0.17-0.21,0.27c0.16-0.02,0.29-0.01,0.43-0.02c0.1,0,0.21,0.01,0.31,0.01
		c0.22,0.01,0.43,0.03,0.65,0.05c0.06,0.02,0.12,0.03,0.19,0.03c0.06,0.01,0.12,0.03,0.18,0.04c0.14,0.06,0.27,0.14,0.39,0.24
		c0.05,0.06,0.1,0.11,0.13,0.19c0.01,0.07-0.01,0.13-0.02,0.19c-0.03,0.06-0.08,0.12-0.1,0.19c0,0,0,0.01,0,0.01
		c-0.1,0.14-0.08,0.21,0.07,0.27c0.04,0.02,0.09,0.03,0.13,0.04C13.22,12.13,13.28,12.15,13.35,12.16z M3.08,3.03L3.08,3.03
		C3.08,3.03,3.08,3.03,3.08,3.03L3.08,3.03L3.08,3.03z M0.31,5.47L0.31,5.47C0.31,5.47,0.31,5.47,0.31,5.47L0.31,5.47L0.31,5.47z
		 M9.87,11.82c0.01,0,0.03,0,0.03-0.02c0-0.01,0.01-0.01,0.01-0.02c0,0,0,0-0.01,0c0,0.01,0,0.01,0,0.02
		C9.89,11.8,9.88,11.8,9.87,11.82C9.87,11.82,9.87,11.82,9.87,11.82C9.87,11.82,9.87,11.82,9.87,11.82
		C9.87,11.82,9.87,11.82,9.87,11.82z M5.46,5.87C5.45,5.88,5.43,5.88,5.42,5.89l0,0l0,0C5.43,5.88,5.45,5.88,5.46,5.87
		C5.46,5.87,5.46,5.87,5.46,5.87C5.46,5.87,5.46,5.87,5.46,5.87z M2.45,9.07c0.01,0.01,0.02,0.02,0.03,0
		C2.48,9.06,2.47,9.06,2.46,9.05C2.45,9.05,2.44,9.04,2.43,9.03C2.33,8.96,2.22,8.9,2.1,8.86C1.97,8.81,1.85,8.84,1.73,8.92
		C1.71,8.94,1.69,8.96,1.69,8.99c0.15-0.11,0.22-0.12,0.4-0.06C2.2,8.97,2.31,9.01,2.42,9.05C2.43,9.06,2.44,9.06,2.45,9.07z
		 M6.6,8.52c0.01,0.01,0.02,0.03,0.03,0C6.61,8.48,6.6,8.46,6.56,8.44C6.55,8.48,6.56,8.5,6.6,8.52z M3.32,2.91
		c0.2-0.04,0.35,0.03,0.49,0.17c0.14,0.14,0.18,0.32,0.2,0.51c0.02,0.24-0.03,0.47-0.04,0.7c-0.02,0.06-0.02,0.13-0.02,0.2
		c0.01-0.07,0.04-0.13,0.04-0.2c0-0.03,0-0.05,0.01-0.08c0.07-0.25,0.1-0.51,0.07-0.77C4.03,3.18,3.88,3.01,3.65,2.9
		C3.54,2.85,3.43,2.84,3.32,2.89C3.26,2.9,3.21,2.93,3.17,2.98C3.22,2.96,3.27,2.93,3.32,2.91z M0.53,5.25
		C0.47,5.26,0.43,5.3,0.4,5.36C0.45,5.33,0.5,5.3,0.55,5.27C0.72,5.22,0.86,5.28,1,5.37c0.23,0.15,0.43,0.35,0.62,0.55
		c0.13,0.13,0.24,0.27,0.36,0.4C2.03,6.4,2.1,6.47,2.16,6.53C2.12,6.45,2.08,6.38,2.02,6.32C1.89,6.12,1.73,5.94,1.58,5.77
		c-0.19-0.21-0.4-0.39-0.66-0.51C0.79,5.2,0.66,5.18,0.53,5.25z M6.64,8.56c-0.01,0-0.01-0.01-0.02-0.01
		c-0.01,0.01-0.01,0.02,0,0.02c0.06,0.15,0.14,0.28,0.23,0.41C7.02,9.2,7.19,9.4,7.4,9.58c0.34,0.28,0.72,0.35,1.14,0.19
		c0.03,0.02,0.05,0,0.07-0.01c0.3-0.09,0.57-0.24,0.82-0.44C9.59,9.2,9.74,9.06,9.84,8.87c0.02-0.04,0.02-0.07-0.01-0.1
		C9.78,8.74,9.74,8.69,9.69,8.65C9.68,8.63,9.65,8.61,9.68,8.58C9.71,8.55,9.72,8.59,9.74,8.6c0.04,0.04,0.08,0.07,0.11,0.11
		C9.88,8.74,9.9,8.75,9.92,8.7c0.02-0.05,0.04-0.1,0.07-0.14c0.09-0.12,0.04-0.2-0.06-0.28C9.83,8.19,9.77,8.07,9.66,8
		C9.42,7.85,9.17,7.81,8.89,7.81c-0.23,0-0.42,0.08-0.56,0.27C8.25,8.2,8.12,8.22,7.99,8.14C7.97,8.13,7.96,8.12,7.94,8.11
		C7.68,7.91,7.39,7.96,7.1,8.06C7.08,8.06,7.06,8.07,7.05,8.1c0,0.04,0.03,0.04,0.05,0.05c0.25,0.13,0.5,0.26,0.76,0.39
		c0.18,0.09,0.36,0.18,0.55,0.27c0.3,0.15,0.61,0.3,0.91,0.46C9.14,9.39,8.94,9.49,8.74,9.56c-0.26,0.09-0.52,0.15-0.8,0.08
		c-0.42-0.11-0.73-0.38-1-0.7C6.83,8.82,6.74,8.69,6.64,8.56z M11.32,8.71c-0.07-0.03-0.13,0-0.2,0.01
		c-0.17,0.03-0.34,0.04-0.5-0.01c-0.16-0.06-0.27,0.02-0.37,0.11c-0.06,0.05-0.05,0.12,0,0.17c0.1,0.09,0.21,0.13,0.34,0.1
		C10.87,9.03,11.08,8.85,11.32,8.71z M11.61,9.35c-0.19,0.05-0.36,0.1-0.52,0.2C11.06,9.57,11.02,9.6,11,9.63
		c-0.02,0.03-0.02,0.07,0.01,0.1c0.06,0.05,0.31,0.07,0.36,0.02C11.48,9.64,11.56,9.51,11.61,9.35z M13.74,9.22
		c0.42,0.09,0.84,0.13,1.16,0.46c0.01-0.04-0.01-0.05-0.03-0.07c-0.15-0.18-0.35-0.28-0.57-0.34c-0.14-0.04-0.28-0.04-0.42-0.08
		C13.85,9.19,13.79,9.17,13.74,9.22z M5.5,5.84c0.01,0.01,0.02,0,0.04,0C5.72,5.78,5.82,5.83,5.9,6.01
		c0.06,0.15,0.08,0.31,0.09,0.47C5.99,6.62,6,6.74,6.01,6.87c0.03-0.21,0.05-0.41,0.04-0.62C6.03,6.14,6,6.03,5.93,5.93
		C5.83,5.76,5.64,5.72,5.5,5.84z M12.59,8.51c-0.28-0.19-0.58-0.12-0.9,0.11C11.99,8.54,12.27,8.38,12.59,8.51z M10.42,7.88
		c0.01,0,0.01,0.01,0.02,0.01c0.06-0.1,0.12-0.19,0.17-0.29c0.09-0.15,0.2-0.25,0.39-0.24c-0.16-0.05-0.33,0.02-0.42,0.17
		C10.51,7.64,10.47,7.76,10.42,7.88z M0.38,5.37C0.35,5.39,0.34,5.4,0.33,5.44C0.35,5.42,0.37,5.41,0.38,5.37z M3.14,3
		C3.14,3,3.13,2.99,3.14,3c-0.01,0-0.01,0-0.01,0c0,0,0,0,0,0.01C3.13,3,3.13,3,3.14,3z M7.83,6.23c0,0,0-0.01,0-0.01
		c0,0,0,0,0-0.01c0,0-0.01,0.01-0.01,0.01C7.82,6.22,7.82,6.23,7.83,6.23z"/>
	<g>
		<path class="st1" d="M7.91,11.8C8.45,12,9,12.06,9.54,12.05c0,0,0,0,0,0c-0.06-0.07-0.12-0.13-0.18-0.19
			c-0.12-0.13-0.25-0.25-0.37-0.38c-0.07-0.08-0.15-0.15-0.22-0.23c-0.08-0.08-0.16-0.16-0.24-0.23c-0.07-0.07-0.15-0.13-0.22-0.2
			c-0.08-0.08-0.17-0.15-0.25-0.22c-0.06-0.05-0.12-0.1-0.18-0.16c-0.06-0.05-0.13-0.1-0.19-0.16c-0.06-0.05-0.12-0.09-0.17-0.14
			c-0.07-0.05-0.14-0.11-0.2-0.16C7.23,9.93,7.17,9.88,7.11,9.83C7.04,9.78,6.96,9.73,6.89,9.67C6.82,9.62,6.75,9.57,6.67,9.51
			C6.6,9.46,6.52,9.41,6.45,9.35c-0.1-0.07-0.19-0.14-0.29-0.21C6.08,9.09,6,9.03,5.92,8.98C5.8,8.9,5.68,8.82,5.57,8.74
			C5.48,8.68,5.39,8.62,5.3,8.56C5.18,8.47,5.06,8.39,4.93,8.3C4.84,8.24,4.75,8.18,4.66,8.12c-0.1-0.07-0.19-0.13-0.29-0.2
			C4.28,7.85,4.2,7.79,4.11,7.73C4.03,7.67,3.95,7.61,3.86,7.55C3.78,7.48,3.69,7.42,3.6,7.35C3.55,7.31,3.5,7.27,3.45,7.23
			C3.39,7.19,3.33,7.14,3.28,7.1C3.23,7.06,3.19,7.03,3.15,6.99C3.1,6.95,3.04,6.91,2.99,6.87C2.96,6.84,2.94,6.81,2.91,6.79
			C2.86,6.75,2.82,6.71,2.78,6.68C2.68,6.59,2.59,6.5,2.49,6.41C2.4,6.33,2.32,6.24,2.23,6.16c-0.01,0-0.01-0.01-0.02-0.01
			C2.2,6.16,2.2,6.17,2.2,6.19C2.19,6.21,2.19,6.22,2.18,6.24c0,0.01-0.01,0.01-0.02,0.01C2.15,6.24,2.15,6.23,2.14,6.23
			c-0.1-0.1-0.19-0.19-0.29-0.29C1.85,5.93,1.84,5.93,1.84,5.92c-0.01-0.01-0.02-0.01-0.03,0c-0.04,0.04-0.09,0.07-0.13,0.1
			c0,0-0.01,0.01-0.02,0.01C1.64,6.04,1.63,6.05,1.62,6.06C1.6,6.08,1.57,6.09,1.55,6.12C1.51,6.2,1.46,6.29,1.42,6.37
			C1.4,6.39,1.4,6.39,1.42,6.41c0.21,0.21,0.41,0.41,0.62,0.62c0.01,0.01,0.01,0.01,0.02,0.01c0.01-0.03,0.01-0.05,0.02-0.08
			C2.09,6.94,2.1,6.94,2.12,6.96c0.01,0.01,0.01,0.01,0.02,0.02C2.28,7.12,2.42,7.26,2.56,7.4c0.03,0.03,0.06,0.04,0.09,0.02
			c0.09-0.03,0.18-0.06,0.28-0.05c0.03,0,0.05,0.01,0.08,0.02c0.07,0.04,0.14,0.08,0.21,0.13c0,0,0.01,0.01,0.01,0.01
			c0.04,0.01,0.07,0.04,0.1,0.06C3.33,7.59,3.35,7.6,3.36,7.61C3.4,7.63,3.43,7.65,3.47,7.68C3.53,7.72,3.6,7.77,3.66,7.81
			c0.01,0.01,0.02,0.01,0.02,0.02c0.05,0.03,0.1,0.07,0.15,0.1C3.94,8.02,4.05,8.11,4.15,8.2C4.23,8.26,4.3,8.32,4.36,8.39
			C4.37,8.39,4.38,8.4,4.38,8.41c0.01,0,0.01,0,0.02,0.01C4.52,8.55,4.58,8.7,4.58,8.88c0,0,0,0.01,0,0.01c0,0,0,0.01,0,0.01
			c0,0.08-0.01,0.17-0.02,0.25c0,0.05-0.01,0.1-0.02,0.15C4.51,9.39,4.49,9.49,4.46,9.58c0,0.01-0.01,0.03-0.01,0.04
			c0,0.01-0.01,0.02-0.01,0.03C4.42,9.69,4.42,9.68,4.45,9.72c0,0,0,0,0,0c0.78,0.78,1.56,1.56,2.34,2.34
			C7.14,11.89,7.51,11.66,7.91,11.8z"/>
		<path class="st2" d="M10.19,11.35c-0.09-0.09-0.18-0.18-0.26-0.27c0,0-0.01-0.01-0.01-0.01c-0.03,0.03-0.07,0.03-0.11,0.04
			c-0.06,0.01-0.13-0.01-0.19-0.03C9.5,11.04,9.4,10.97,9.3,10.9c-0.06-0.04-0.12-0.09-0.18-0.14C9.06,10.72,9,10.67,8.94,10.63
			c-0.05-0.05-0.11-0.1-0.16-0.14c-0.05-0.04-0.09-0.1-0.15-0.13c0,0-0.01-0.01-0.01-0.01c-0.27-0.26-0.53-0.52-0.79-0.78
			c-0.1-0.1-0.2-0.2-0.29-0.3C7.46,9.16,7.37,9.08,7.28,8.99C6.79,8.5,6.3,8.02,5.82,7.53C5.76,7.47,5.71,7.41,5.66,7.35
			c-0.03-0.04-0.07-0.07-0.1-0.11C5.51,7.19,5.46,7.14,5.42,7.09C5.37,7.03,5.32,6.98,5.28,6.92C5.19,6.8,5.1,6.69,5.03,6.56
			c-0.05-0.1-0.1-0.19-0.12-0.3c0-0.02,0-0.03,0-0.05c0-0.01,0-0.03-0.01-0.04C4.89,6.18,4.87,6.18,4.85,6.19
			C4.79,6.21,4.79,6.21,4.75,6.16c-0.07-0.09-0.13-0.17-0.2-0.26C4.49,5.83,4.43,5.75,4.37,5.67C4.3,5.59,4.23,5.51,4.17,5.43
			C4.09,5.34,4.02,5.25,3.95,5.17c-0.07-0.08-0.13-0.16-0.2-0.23C3.67,4.85,3.6,4.77,3.53,4.7C3.45,4.62,3.38,4.54,3.3,4.48
			C3.25,4.43,3.21,4.39,3.16,4.35C3.12,4.33,3.08,4.3,3.03,4.29c-0.03-0.01-0.05,0-0.07,0.01C2.93,4.32,2.91,4.34,2.89,4.37
			C2.84,4.44,2.8,4.51,2.77,4.59C2.67,4.79,2.59,5,2.52,5.21C2.46,5.38,2.4,5.54,2.35,5.71c0,0.01-0.01,0.01-0.01,0.02
			c0,0.01,0,0.03-0.01,0.04C2.31,5.83,2.29,5.89,2.27,5.96c-0.01,0.02,0,0.03,0.01,0.05C2.4,6.12,2.52,6.24,2.63,6.36
			C2.71,6.43,2.8,6.51,2.88,6.58C2.95,6.65,3.03,6.71,3.1,6.77c0.07,0.06,0.13,0.11,0.2,0.17C3.38,7,3.45,7.06,3.53,7.12
			c0.09,0.07,0.19,0.14,0.28,0.21C3.88,7.39,3.95,7.44,4.02,7.5C4.1,7.55,4.17,7.6,4.25,7.66c0.09,0.06,0.18,0.13,0.27,0.19
			c0.12,0.08,0.23,0.16,0.35,0.24C5.02,8.2,5.18,8.3,5.33,8.41C5.45,8.49,5.57,8.58,5.7,8.66C5.81,8.74,5.93,8.82,6.04,8.9
			c0.1,0.07,0.21,0.14,0.31,0.22c0.1,0.07,0.2,0.14,0.29,0.21c0.1,0.07,0.21,0.15,0.31,0.22C7.03,9.6,7.1,9.66,7.17,9.71
			c0.06,0.05,0.13,0.1,0.19,0.15c0.05,0.04,0.1,0.08,0.16,0.12c0.06,0.04,0.11,0.09,0.17,0.13c0.04,0.03,0.08,0.07,0.13,0.1
			c0.05,0.04,0.1,0.08,0.15,0.12c0.02,0.02,0.04,0.04,0.07,0.06c0.06,0.05,0.12,0.11,0.18,0.16c0.07,0.06,0.14,0.12,0.21,0.18
			c0,0,0,0,0.01,0c0.06,0.06,0.12,0.11,0.18,0.16c0.2,0.18,0.39,0.37,0.57,0.57c0.1,0.1,0.2,0.2,0.29,0.3
			c0.07,0.08,0.14,0.14,0.21,0.22c0.01,0.02,0.03,0.03,0.04,0.04c0.35-0.02,0.69-0.06,1.04-0.11
			C10.58,11.74,10.38,11.55,10.19,11.35z"/>
		<path class="st3" d="M9.92,11.07c-0.03,0.03-0.07,0.03-0.11,0.04c-0.06,0.01-0.13-0.01-0.19-0.03C9.5,11.04,9.4,10.97,9.3,10.9
			c-0.06-0.04-0.12-0.09-0.18-0.14C9.06,10.72,9,10.67,8.94,10.63c-0.05-0.05-0.11-0.1-0.16-0.14c-0.05-0.04-0.09-0.1-0.15-0.13
			c0,0-0.01-0.01-0.01-0.01c-0.27-0.26-0.53-0.52-0.79-0.78c-0.1-0.1-0.2-0.2-0.29-0.3C7.46,9.16,7.37,9.08,7.28,8.99
			C6.79,8.5,6.3,8.02,5.82,7.53C5.76,7.47,5.71,7.41,5.66,7.35c-0.03-0.04-0.07-0.07-0.1-0.11C5.51,7.19,5.46,7.14,5.42,7.09
			C5.37,7.03,5.32,6.98,5.28,6.92C5.19,6.8,5.1,6.69,5.03,6.56c-0.05-0.1-0.1-0.19-0.12-0.3c0-0.02,0-0.03,0-0.05
			c0-0.01,0-0.03-0.01-0.04c0.02-0.01,0.04-0.02,0.07-0.03C5.1,6.11,5.23,6.07,5.36,6.05C5.49,6.03,5.61,6.01,5.74,6
			c0.07-0.01,0.13-0.01,0.2-0.01c0.08-0.01,0.17,0,0.25,0c0.11,0,0.22,0.02,0.33,0.04c0.12,0.02,0.25,0.05,0.37,0.09
			c0.1,0.03,0.19,0.08,0.29,0.13c0.1,0.06,0.2,0.12,0.3,0.19c0.07,0.05,0.14,0.1,0.21,0.15c0.05,0.04,0.1,0.08,0.15,0.12
			c0.04,0.03,0.08,0.07,0.12,0.1C8,6.84,8.05,6.89,8.1,6.93c0.02,0.02,0.05,0.04,0.07,0.06C8.22,7.03,8.26,7.06,8.3,7.1
			c0.05,0.04,0.09,0.09,0.14,0.12c0,0,0.01,0,0.01,0.01c0.18,0.16,0.35,0.33,0.51,0.51C9.03,7.81,9.1,7.88,9.17,7.96
			c0.07,0.08,0.14,0.17,0.21,0.25C9.44,8.31,9.51,8.4,9.57,8.5c0.04,0.06,0.07,0.13,0.1,0.2c0.07,0.19,0.13,0.39,0.16,0.58
			C9.86,9.44,9.88,9.6,9.9,9.75c0.01,0.09,0.02,0.18,0.02,0.28c0.02,0.23,0.02,0.45,0.01,0.68c0,0.11-0.01,0.22-0.01,0.33
			C9.92,11.05,9.92,11.06,9.92,11.07z M5.26,6.5c0.01,0.02,0.02,0.03,0.03,0.03c0.94,0.94,1.87,1.87,2.81,2.81
			C8.1,9.35,8.11,9.36,8.11,9.36c0.01,0.01,0.02,0.01,0.03,0C8.16,9.33,8.18,9.31,8.2,9.28c0.03-0.03,0.05-0.07,0.08-0.1
			c0.04-0.05,0.08-0.11,0.12-0.16c0.03-0.04,0.06-0.07,0.08-0.11C8.53,8.86,8.57,8.8,8.61,8.75c0.04-0.05,0.08-0.1,0.12-0.16
			c0.04-0.05,0.08-0.11,0.12-0.16C8.9,8.38,8.95,8.31,9,8.25c0.01-0.01,0.01-0.02,0-0.03C8.96,8.19,8.93,8.15,8.9,8.12
			C8.77,7.99,8.65,7.86,8.52,7.74C8.45,7.66,8.37,7.59,8.29,7.52C8.23,7.47,8.18,7.41,8.12,7.36c-0.06-0.05-0.11-0.1-0.16-0.15
			c0,0-0.01,0-0.01-0.01C7.91,7.17,7.87,7.13,7.84,7.1C7.81,7.08,7.78,7.05,7.75,7.03c-0.06-0.05-0.12-0.1-0.18-0.14
			C7.51,6.84,7.45,6.79,7.39,6.75C7.3,6.69,7.21,6.63,7.12,6.58C7,6.5,6.86,6.45,6.72,6.41C6.56,6.37,6.39,6.35,6.23,6.34
			c-0.15-0.01-0.3,0-0.45,0.02C5.67,6.38,5.57,6.4,5.46,6.43C5.39,6.45,5.32,6.47,5.26,6.5z M8.96,10.2
			C8.96,10.2,8.96,10.2,8.96,10.2c0.21,0.21,0.42,0.42,0.62,0.63c0.01,0.01,0.01,0.01,0.02,0.02c0.02,0.01,0.02,0.01,0.03,0
			c0.02-0.04,0.04-0.09,0.04-0.13c0.02-0.11,0.02-0.23,0.02-0.34c0-0.04,0-0.07,0-0.11c0-0.07-0.01-0.14-0.01-0.22
			C9.66,9.89,9.65,9.73,9.62,9.57C9.58,9.35,9.52,9.12,9.45,8.9C9.41,8.79,9.36,8.67,9.3,8.57C9.26,8.51,9.22,8.45,9.18,8.4
			c-0.02-0.02-0.03-0.02-0.04,0C9.11,8.43,9.09,8.46,9.07,8.49C9.01,8.57,8.95,8.65,8.9,8.73C8.84,8.81,8.77,8.89,8.71,8.97
			c-0.07,0.09-0.14,0.19-0.2,0.28c-0.07,0.09-0.13,0.18-0.2,0.27c-0.01,0.01-0.01,0.02,0,0.03c0.01,0.01,0.01,0.01,0.02,0.02
			C8.54,9.79,8.75,10,8.96,10.2z"/>
		<path class="st4" d="M9.69,12c-0.07-0.08-0.14-0.15-0.21-0.22c-0.09-0.1-0.2-0.2-0.29-0.3C9,11.28,8.81,11.09,8.61,10.91
			c-0.06-0.05-0.12-0.11-0.18-0.16c0,0,0,0-0.01,0c-0.07-0.06-0.14-0.12-0.21-0.18C8.16,10.5,8.1,10.45,8.04,10.4
			c-0.02-0.02-0.04-0.04-0.07-0.06c-0.05-0.04-0.1-0.08-0.15-0.12c-0.04-0.03-0.08-0.07-0.13-0.1c-0.06-0.04-0.11-0.09-0.17-0.13
			C7.47,9.94,7.42,9.9,7.37,9.86C7.3,9.81,7.24,9.76,7.17,9.71C7.1,9.66,7.03,9.6,6.96,9.55C6.85,9.47,6.75,9.4,6.65,9.32
			c-0.1-0.07-0.2-0.14-0.29-0.21C6.25,9.04,6.14,8.97,6.04,8.9C5.93,8.82,5.81,8.74,5.7,8.66C5.57,8.58,5.45,8.49,5.33,8.41
			C5.18,8.3,5.02,8.2,4.87,8.09C4.75,8.01,4.63,7.93,4.52,7.85C4.43,7.78,4.34,7.72,4.25,7.66C4.17,7.6,4.1,7.55,4.02,7.5
			C3.95,7.44,3.88,7.39,3.81,7.33C3.72,7.26,3.62,7.19,3.53,7.12C3.45,7.06,3.38,7,3.3,6.94C3.23,6.88,3.17,6.83,3.1,6.77
			C3.03,6.71,2.95,6.65,2.88,6.58C2.8,6.51,2.71,6.43,2.63,6.36C2.52,6.24,2.4,6.12,2.28,6.01C2.27,5.99,2.26,5.98,2.27,5.96
			c0.02-0.06,0.04-0.13,0.06-0.19c0-0.01,0.01-0.02,0.01-0.04C2.29,5.69,2.25,5.64,2.21,5.6c-0.1-0.09-0.26-0.07-0.32,0.06
			c0,0.01,0,0.02-0.02,0.03C1.86,5.68,1.85,5.67,1.83,5.66c-0.1-0.05-0.2-0.01-0.25,0.05C1.52,5.79,1.53,5.9,1.6,5.97
			c0.02,0.02,0.04,0.04,0.06,0.06c0.01,0,0.01,0,0.02-0.01c0.05-0.03,0.09-0.07,0.13-0.1c0.01-0.01,0.02-0.01,0.03,0
			c0.01,0.01,0.01,0.01,0.02,0.02c0.1,0.1,0.19,0.19,0.29,0.29c0.01,0.01,0.01,0.01,0.02,0.02c0.01,0.01,0.02,0.01,0.02-0.01
			C2.19,6.22,2.19,6.21,2.2,6.19c0-0.02,0.01-0.03,0.02-0.04c0.01,0,0.01,0.01,0.02,0.01C2.32,6.24,2.4,6.33,2.49,6.41
			c0.1,0.09,0.19,0.18,0.29,0.27c0.04,0.04,0.09,0.08,0.13,0.11c0.03,0.03,0.06,0.05,0.09,0.08c0.05,0.04,0.1,0.08,0.15,0.13
			C3.19,7.03,3.23,7.06,3.28,7.1c0.06,0.04,0.11,0.09,0.17,0.13C3.5,7.27,3.55,7.31,3.6,7.35c0.09,0.07,0.17,0.13,0.26,0.19
			c0.08,0.06,0.16,0.12,0.24,0.18C4.2,7.79,4.28,7.85,4.37,7.92c0.1,0.07,0.19,0.13,0.29,0.2C4.75,8.18,4.84,8.24,4.93,8.3
			C5.06,8.39,5.18,8.47,5.3,8.56c0.09,0.06,0.18,0.12,0.26,0.18C5.68,8.82,5.8,8.9,5.92,8.98C6,9.03,6.08,9.09,6.16,9.15
			c0.1,0.07,0.2,0.14,0.29,0.21C6.52,9.41,6.6,9.46,6.67,9.51c0.07,0.05,0.15,0.11,0.22,0.16c0.07,0.05,0.14,0.11,0.22,0.16
			c0.06,0.05,0.12,0.09,0.18,0.14c0.07,0.05,0.14,0.1,0.2,0.16c0.06,0.05,0.12,0.09,0.17,0.14c0.06,0.05,0.13,0.1,0.19,0.16
			c0.06,0.05,0.12,0.1,0.18,0.16c0.09,0.07,0.17,0.15,0.25,0.22c0.07,0.07,0.15,0.13,0.22,0.2c0.08,0.08,0.16,0.15,0.24,0.23
			c0.08,0.07,0.15,0.15,0.22,0.23c0.12,0.13,0.25,0.25,0.37,0.38c0.06,0.07,0.13,0.13,0.18,0.19c0,0,0,0,0,0
			c0.06,0,0.12,0,0.19-0.01C9.72,12.03,9.7,12.01,9.69,12z"/>
		<path class="st5" d="M4.57,8.89c0,0,0,0.01,0,0.01c0,0.08-0.01,0.17-0.02,0.25C4.54,9.17,4.53,9.18,4.52,9.19
			C4.48,9.23,4.44,9.26,4.4,9.29C4.33,9.34,4.26,9.38,4.18,9.42c-0.01,0-0.02,0.01-0.04,0.01C3.8,9.55,3.47,9.52,3.16,9.31
			C2.73,9.02,2.58,8.44,2.81,7.97c0.01-0.01,0.02-0.02,0.02-0.04c0.01,0,0.01-0.01,0.01-0.01c0.09-0.15,0.2-0.27,0.35-0.37
			C3.2,7.54,3.21,7.53,3.22,7.52c0.04,0.01,0.07,0.04,0.1,0.06C3.33,7.59,3.35,7.6,3.36,7.61C3.35,7.61,3.34,7.62,3.33,7.62
			c-0.16,0.09-0.28,0.2-0.37,0.36c-0.22,0.4-0.13,0.89,0.23,1.18c0.16,0.13,0.34,0.2,0.54,0.2C4.1,9.37,4.38,9.21,4.57,8.89z"/>
		<path class="st4" d="M3.22,7.52C3.21,7.53,3.2,7.54,3.19,7.55c-0.14,0.1-0.26,0.22-0.35,0.37c0,0.01,0,0.01-0.01,0.01
			C2.81,7.9,2.8,7.87,2.79,7.84C2.73,7.71,2.68,7.57,2.65,7.42c0.09-0.03,0.18-0.06,0.28-0.05c0.03,0,0.05,0.01,0.08,0.02
			c0.07,0.04,0.14,0.08,0.21,0.13C3.22,7.51,3.22,7.52,3.22,7.52z"/>
		<path class="st4" d="M4.18,9.42C4.26,9.38,4.33,9.34,4.4,9.29c0.04-0.03,0.08-0.06,0.12-0.1c0.01-0.01,0.02-0.02,0.04-0.03
			c0,0.05-0.01,0.1-0.02,0.15C4.51,9.39,4.49,9.49,4.46,9.58c0,0.01-0.01,0.03-0.01,0.04C4.36,9.55,4.27,9.48,4.18,9.42z"/>
		<path class="st6" d="M4.57,8.89C4.38,9.21,4.1,9.37,3.73,9.36c-0.2,0-0.38-0.07-0.54-0.2C2.83,8.87,2.74,8.38,2.96,7.98
			c0.09-0.15,0.21-0.27,0.37-0.36c0.01-0.01,0.02-0.01,0.03-0.02C3.4,7.63,3.43,7.65,3.47,7.68C3.53,7.72,3.6,7.77,3.66,7.81
			c0.01,0.01,0.02,0.01,0.02,0.02c-0.01,0-0.02,0-0.02,0.01C3.5,7.87,3.37,7.95,3.28,8.08c-0.2,0.27-0.14,0.66,0.13,0.86
			C3.7,9.14,4.12,9.06,4.3,8.74c0.06-0.1,0.08-0.21,0.08-0.33c0.01,0,0.01,0,0.02,0.01C4.52,8.55,4.58,8.7,4.58,8.88
			C4.58,8.88,4.57,8.89,4.57,8.89z"/>
		<path class="st5" d="M4.38,8.41c0,0.12-0.02,0.23-0.08,0.33C4.12,9.06,3.7,9.14,3.41,8.93c-0.27-0.2-0.33-0.59-0.13-0.86
			c0.1-0.13,0.22-0.21,0.38-0.24c0.01,0,0.02,0,0.02-0.01c0.05,0.03,0.1,0.07,0.15,0.1C3.94,8.02,4.05,8.11,4.15,8.2
			C4.23,8.26,4.3,8.32,4.36,8.39C4.37,8.39,4.38,8.4,4.38,8.41z M4.06,8.14c-0.16-0.16-0.43-0.16-0.59,0
			c-0.16,0.16-0.16,0.43,0,0.59c0.16,0.16,0.43,0.16,0.59,0C4.22,8.57,4.23,8.31,4.06,8.14z"/>
		<path class="st7" d="M5.26,6.5c0.07-0.03,0.14-0.05,0.2-0.07C5.57,6.4,5.67,6.38,5.78,6.36c0.15-0.02,0.3-0.03,0.45-0.02
			c0.17,0.01,0.33,0.03,0.49,0.07C6.86,6.45,7,6.5,7.12,6.58C7.21,6.63,7.3,6.69,7.39,6.75c0.06,0.04,0.12,0.09,0.18,0.14
			c0.06,0.05,0.12,0.1,0.18,0.14C7.78,7.05,7.81,7.08,7.84,7.1c0.04,0.03,0.08,0.07,0.12,0.1c0,0,0.01,0,0.01,0.01
			c0.05,0.05,0.11,0.1,0.16,0.15c0.06,0.05,0.11,0.11,0.17,0.16c0.08,0.07,0.15,0.15,0.23,0.22C8.65,7.86,8.77,7.99,8.9,8.12
			C8.93,8.15,8.96,8.19,9,8.22c0.01,0.01,0.01,0.02,0,0.03C8.95,8.31,8.9,8.38,8.86,8.44C8.82,8.49,8.78,8.54,8.74,8.59
			C8.69,8.65,8.65,8.7,8.61,8.75C8.57,8.8,8.53,8.86,8.49,8.91C8.46,8.95,8.43,8.98,8.41,9.02C8.37,9.07,8.32,9.12,8.28,9.18
			C8.26,9.21,8.23,9.25,8.2,9.28C8.18,9.31,8.16,9.33,8.14,9.36c-0.01,0.02-0.02,0.02-0.03,0C8.11,9.36,8.1,9.35,8.09,9.34
			C7.16,8.41,6.22,7.47,5.28,6.53C5.27,6.52,5.26,6.52,5.26,6.5z"/>
		<path class="st7" d="M8.96,10.2C8.75,10,8.54,9.79,8.33,9.58C8.32,9.57,8.32,9.57,8.31,9.56c-0.01-0.01-0.01-0.02,0-0.03
			c0.07-0.09,0.13-0.18,0.2-0.27c0.07-0.09,0.14-0.19,0.2-0.28C8.77,8.89,8.84,8.81,8.9,8.73c0.06-0.08,0.11-0.16,0.17-0.24
			C9.09,8.46,9.11,8.43,9.13,8.4c0.02-0.02,0.02-0.02,0.04,0C9.22,8.45,9.26,8.51,9.3,8.57C9.36,8.67,9.41,8.79,9.45,8.9
			c0.08,0.22,0.13,0.44,0.17,0.67c0.03,0.16,0.05,0.31,0.06,0.47c0.01,0.07,0.01,0.14,0.01,0.22c0,0.04,0,0.07,0,0.11
			c0,0.11,0,0.23-0.02,0.34c-0.01,0.05-0.02,0.09-0.04,0.13c-0.01,0.02-0.01,0.02-0.03,0c-0.01-0.01-0.01-0.01-0.02-0.02
			C9.37,10.62,9.16,10.41,8.96,10.2C8.96,10.2,8.96,10.2,8.96,10.2z"/>
		<path class="st6" d="M4.06,8.14c0.16,0.16,0.16,0.43,0,0.59C3.9,8.9,3.63,8.9,3.47,8.73c-0.16-0.16-0.16-0.43,0-0.59
			C3.64,7.98,3.9,7.98,4.06,8.14z"/>
	</g>
	<path class="st0" d="M10.85,12.3l-6.72-0.11c-0.13,0-0.23-0.11-0.23-0.24l0-0.02c0-0.13,0.11-0.23,0.24-0.23l6.72,0.11
		c0.13,0,0.23,0.11,0.23,0.24l0,0.02C11.08,12.2,10.98,12.3,10.85,12.3z"/>
</g>
</svg>
